<?xml version="1.0" encoding="utf-8"?>
<!-- Generator: Adobe Illustrator 17.1.0, SVG Export Plug-In . SVG Version: 6.00 Build 0)  -->
<!DOCTYPE svg PUBLIC "-//W3C//DTD SVG 1.1//EN" "http://www.w3.org/Graphics/SVG/1.1/DTD/svg11.dtd">
<svg version="1.1" id="Layer_1" xmlns="http://www.w3.org/2000/svg" xmlns:xlink="http://www.w3.org/1999/xlink" x="0px" y="0px"
	 viewBox="0 0 75 75" enable-background="new 0 0 75 75" xml:space="preserve">
<path d="M52.5,57c1.7,0,3,1.3,3,3s-1.3,3-3,3c-1.7,0-3-1.3-3-3S50.8,57,52.5,57z M31.5,57c1.7,0,3,1.3,3,3s-1.3,3-3,3
	c-1.7,0-3-1.3-3-3S29.8,57,31.5,57z M52.5,52.5c-4.1,0-7.5,3.4-7.5,7.5s3.4,7.5,7.5,7.5S60,64.1,60,60S56.6,52.5,52.5,52.5z
	 M31.5,52.5c-4.1,0-7.5,3.4-7.5,7.5s3.4,7.5,7.5,7.5S39,64.1,39,60S35.6,52.5,31.5,52.5z M19.4,19.5h46.8l-4.2,18H23.2L19.4,19.5z
	 M6,7.5c-1.2,0-2.3,1-2.3,2.3S4.8,12,6,12h7.2l7.7,36.5c0.3,1.4,1.2,2.5,2.3,2.5h37.5c1.2,0,2.3-1.1,2.3-2.3s-1.1-2.3-2.3-2.3H25.1
	l-1-4.5h39.6c1,0,2-0.8,2.2-1.8l5.3-22.5c0.3-1.3-0.8-2.7-2.2-2.7H18.4l-1.2-5.7C17,8.3,16,7.5,15,7.5H6z"/>
</svg>
